<svg width="45" height="45" viewBox="0 0 45 45" fill="none" xmlns="http://www.w3.org/2000/svg">
<circle cx="22.5" cy="22.5" r="21" stroke="black" stroke-width="3"/>
<path d="M11.9899 22.5101C11.4432 21.9633 10.5568 21.9633 10.0101 22.5101C9.46332 23.0568 9.46332 23.9432 10.0101 24.4899L11.9899 22.5101ZM18.5 31L17.5101 31.9899C18.0568 32.5367 18.9432 32.5367 19.4899 31.9899L18.5 31ZM33.99 17.4899C34.5367 16.9432 34.5367 16.0568 33.99 15.5101C33.4432 14.9633 32.5568 14.9633 32.01 15.5101L33.99 17.4899ZM10.0101 24.4899L17.5101 31.9899L19.4899 30.0101L11.9899 22.5101L10.0101 24.4899ZM19.4899 31.9899L33.99 17.4899L32.01 15.5101L17.5101 30.0101L19.4899 31.9899Z" fill="black"/>
</svg>
