<svg width="25" height="25" viewBox="0 0 25 25" fill="none" xmlns="http://www.w3.org/2000/svg">
<path d="M12.5 25C19.4036 25 25 19.4036 25 12.5C25 5.59644 19.4036 0 12.5 0C5.59644 0 0 5.59644 0 12.5C0 19.4036 5.59644 25 12.5 25Z" fill="#1A76F2"/>
<path d="M13.3345 20.8333V13.2309H15.8864L16.2684 10.2681H13.3345V8.37639C13.3345 7.51861 13.5728 6.93398 14.8029 6.93398L16.3719 6.93326V4.28337C16.1004 4.24739 15.1691 4.16675 14.0857 4.16675C11.8236 4.16675 10.275 5.54743 10.275 8.08311V10.2681H7.71655V13.2309H10.2749V20.8334L13.3345 20.8333Z" fill="white"/>
</svg>
