<svg width="17" height="19" viewBox="0 0 17 19" fill="none" xmlns="http://www.w3.org/2000/svg">
<path d="M15.3182 7.13647H1.68182C1.30526 7.13647 1 7.44173 1 7.81829V17.3637C1 17.7403 1.30526 18.0456 1.68182 18.0456H15.3182C15.6947 18.0456 16 17.7403 16 17.3637V7.81829C16 7.44173 15.6947 7.13647 15.3182 7.13647Z" stroke="#ACACAC" stroke-linecap="round" stroke-linejoin="round"/>
<path d="M5.43188 7.13636V4.06818C5.43188 3.25445 5.75514 2.47405 6.33053 1.89865C6.90593 1.32325 7.68633 1 8.50007 1C9.3138 1 10.0942 1.32325 10.6696 1.89865C11.245 2.47405 11.5682 3.25445 11.5682 4.06818V7.13636" stroke="#ACACAC" stroke-linecap="round" stroke-linejoin="round"/>
<path d="M8.50002 13.6136C9.06486 13.6136 9.52275 13.1557 9.52275 12.5908C9.52275 12.026 9.06486 11.5681 8.50002 11.5681C7.93519 11.5681 7.47729 12.026 7.47729 12.5908C7.47729 13.1557 7.93519 13.6136 8.50002 13.6136Z" fill="#ACACAC"/>
</svg>
